<svg width="1492" height="276" viewBox="0 0 1492 276" fill="none" xmlns="http://www.w3.org/2000/svg">
<path d="M489.065 42.5646C538.13 44.6333 568.527 65.7962 576.189 117.205C589.363 205.609 494.515 248.765 429.97 195.268C430.527 205.895 430.511 217.341 430.682 228.045L430.532 275.462L387.27 275.233L387.126 46.1565C401.474 46.5784 415.827 46.7355 430.181 46.6267L430.231 67.4863C430.923 66.5757 431.639 65.6823 432.377 64.8076C447.174 47.0535 467.623 44.5764 489.065 42.5646Z" fill="#0077B5"/>
<path d="M478.208 83.3522C489.642 82.0456 502.718 84.6637 512.565 90.6473C538.291 106.279 540.166 151.419 515.006 168.365C506.694 173.962 499.006 175.473 489.442 177.155C412.688 178.372 410.809 90.5273 478.208 83.3522Z" fill="white"/>
<path d="M677.298 42.5756C802.713 36.2542 811.879 210.553 688.642 217.872C662.337 218.565 637.362 214.849 616.125 197.845C575.91 165.545 575.872 93.3 617.479 62.0173C636.497 47.7178 654.524 44.5849 677.298 42.5756Z" fill="#0077B5"/>
<path d="M676.183 83.3275C688.242 82.7472 699.761 84.2431 710.261 90.4927C738.689 107.413 739.171 155.195 708.939 170.625C701.838 174.251 696.72 175.307 689.034 176.99C673.562 177.679 661.636 177.234 648.046 167.85C627.658 153.77 625.149 120.584 639.568 101.508C648.914 89.1465 661.331 85.2626 676.183 83.3275Z" fill="white"/>
<path d="M0.00869728 0.0111454L171.37 0L171.751 40.8372C129.458 40.4772 87.1615 40.4611 44.8679 40.7914L44.8988 86.4418L170.909 85.9604L170.866 125.553L82.3275 125.607C70.0744 125.772 57.1829 125.458 44.8778 125.356C45.323 140.919 44.9235 157.949 44.8345 173.643L172.929 173.359L173.008 214.217C116.875 215.376 56.3281 214.373 0 214.369L0.00869728 0.0111454Z" fill="#0077B5"/>
<path d="M1394.53 42.5731C1417.51 40.6466 1447.77 49.6319 1464.74 65.1935C1487.96 86.4887 1490.49 108.566 1491.8 137.892C1445.42 139.13 1394.54 138.181 1347.93 137.831C1358.36 185.003 1419.39 190.964 1442.67 154.78L1472.73 155.253L1490.16 155.679C1480.88 194.27 1451.12 212.181 1411.85 217.466C1325 229.148 1272.23 146.843 1321.46 74.7579C1336.67 52.4975 1367.82 45.1207 1394.53 42.5731Z" fill="#0077B5"/>
<path d="M1389.05 83.2742C1415.22 81.594 1429.76 85.2959 1442.96 108.915C1431.58 109.28 1419.48 109.123 1408.04 109.16L1351.55 109.263C1360.12 92.4067 1370.5 86.162 1389.05 83.2742Z" fill="white"/>
<path d="M878.81 42.567C894.927 41.0328 924.206 47.2254 937.862 55.9893C960.659 70.6241 968.377 85.0498 974.958 109.561L929.809 111.477C916.401 86.6385 899.455 81.1288 871.908 83.7704C846.686 87.1149 831.509 104.591 831.027 130.157C830.136 178.462 889.794 190.479 920.99 163.194C923.872 160.673 927.669 151.712 930.675 147.542C944.603 148.511 960.411 148.475 974.5 148.746C964.889 222.079 868.061 235.726 817.024 198.075C780.572 171.183 777.69 107.668 805.657 73.9215C825.386 50.1195 849.915 45.471 878.81 42.567Z" fill="#0077B5"/>
<path d="M1122.97 46.4955L1165.48 46.4856C1165.97 66.5571 1165.55 88.0231 1165.5 108.199C1165.76 143.611 1165.19 178.982 1165.78 214.379C1152.06 214.584 1137.78 214.301 1124.01 214.223C1124.26 207.195 1123.99 199.817 1123.86 192.761C1095.56 226.73 1042.74 226.325 1009.15 197.35C1002.32 191.459 993.784 176.165 992.225 167.196C985.571 128.813 988.23 85.9544 988.341 46.5995L1031.62 46.6849C1032.06 79.1381 1029.46 113.552 1033.23 145.62C1038.44 180.909 1088.26 186.255 1110.18 165.31C1125.77 150.414 1123.09 121.897 1123.06 102.115C1123.02 83.6134 1122.88 65.0389 1122.97 46.4955Z" fill="#0077B5"/>
<path d="M1278.74 44.9477C1287.29 43.9281 1299.61 44.8623 1308.13 45.5527C1308.14 58.8648 1308.03 72.177 1307.81 85.4878C1301.81 84.8581 1295.78 84.4819 1289.76 84.3595C1263.65 83.9672 1233.34 96.1521 1228.89 123.593C1224.54 150.533 1226.78 186.578 1226.68 214.188L1186.31 214.342C1183.05 210.27 1184.4 63.3204 1184.32 46.4905L1226.87 46.4311L1226.91 75.7119C1242.94 53.0903 1251.64 48.7933 1278.74 44.9477Z" fill="#0077B5"/>
<path d="M194.412 46.1428C209.028 46.6675 226.627 46.222 241.456 46.2059C246.939 52.4444 255.901 65.1948 261.293 72.3452L304.874 130.601C287.986 150.597 258.277 192.34 242.193 214.443L194.721 214.387C212.326 188.528 238.086 155.685 257.54 130.649C236.475 102.316 215.262 74.7171 194.412 46.1428Z" fill="#1DBF73"/>
<path d="M322.131 154.178C326.913 158.661 361.619 206.262 367.66 214.316L342.517 214.54L318.409 214.339L297.833 186.9C305.691 177.161 314.563 164.419 322.131 154.178Z" fill="#0077B5"/>
<path d="M320.392 46.2876L367.028 46.3507L331.356 94.4224L321.766 107.914C314.014 96.558 305.928 86.2983 297.423 75.5572C304.236 66.8912 312.94 53.7015 320.392 46.2876Z" fill="#0077B5"/>
</svg>
